<?xml version="1.0" standalone="no"?>
<!DOCTYPE svg PUBLIC "-//W3C//DTD SVG 20010904//EN"
 "http://www.w3.org/TR/2001/REC-SVG-20010904/DTD/svg10.dtd">
<svg version="1.0" xmlns="http://www.w3.org/2000/svg"
 width="512.000000pt" height="512.000000pt" viewBox="0 0 512.000000 512.000000"
 preserveAspectRatio="xMidYMid meet">
<metadata>
Created by potrace 1.14, written by Peter Selinger 2001-2017
</metadata>
<g transform="translate(0.000000,512.000000) scale(0.100000,-0.100000)"
fill="#000000" stroke="none">
<path d="M2389 4466 c-2 -2 -40 -6 -84 -10 -99 -8 -123 -11 -285 -42 -234 -44
-528 -161 -760 -302 -382 -232 -706 -625 -816 -988 -9 -33 -19 -63 -21 -69 -9
-27 -43 -197 -49 -245 -10 -78 -11 -253 -2 -330 12 -106 18 -149 23 -162 2 -7
6 -25 9 -40 7 -42 56 -197 78 -248 48 -110 140 -278 190 -345 204 -271 466
-492 750 -631 55 -27 56 -28 51 -63 -4 -20 -12 -54 -20 -75 -65 -189 15 -290
207 -261 45 7 225 52 330 83 30 8 60 17 65 18 6 1 48 12 95 24 82 22 118 24
225 15 54 -5 325 -5 390 0 82 5 306 39 347 51 9 3 25 6 35 8 182 36 509 164
661 260 23 14 44 26 47 26 14 0 252 178 314 235 331 306 517 646 577 1055 10
71 12 278 3 360 -43 396 -228 757 -544 1061 -169 162 -543 399 -633 402 -64 2
-97 -77 -49 -120 12 -11 55 -37 96 -57 241 -120 479 -306 629 -491 31 -38 59
-72 62 -75 19 -19 93 -143 140 -235 110 -216 159 -426 155 -663 -3 -134 -10
-202 -31 -287 -8 -33 -17 -68 -19 -77 -24 -105 -111 -298 -189 -417 -163 -251
-430 -486 -726 -638 -139 -71 -388 -164 -505 -189 -11 -2 -31 -6 -45 -9 -66
-15 -123 -25 -167 -30 -26 -4 -59 -8 -73 -11 -33 -5 -214 -17 -265 -17 -22 0
-110 3 -195 7 -140 6 -174 4 -275 -18 -11 -2 -79 -20 -151 -40 -71 -20 -139
-38 -149 -41 -11 -3 -56 -14 -100 -25 -90 -22 -135 -25 -135 -9 0 7 9 42 20
79 48 163 25 228 -107 294 -301 152 -574 393 -746 658 -20 32 -37 60 -37 63 0
3 -11 22 -23 43 -51 81 -127 293 -152 427 -27 141 -26 369 1 515 10 57 54 212
71 250 48 113 131 266 186 342 317 441 844 736 1462 819 111 15 462 18 565 5
129 -17 170 -3 170 58 0 53 -23 74 -88 81 -31 4 -68 9 -82 12 -29 6 -425 14
-431 9z"/>
<path d="M3090 4378 c-43 -46 -14 -114 53 -125 49 -8 87 24 87 73 0 65 -95
100 -140 52z"/>
<path d="M2477 4084 c-1 -1 -42 -4 -92 -8 -104 -8 -186 -18 -240 -32 -5 -1
-26 -5 -45 -9 -63 -11 -248 -67 -315 -95 -327 -137 -584 -325 -778 -567 -31
-40 -57 -74 -57 -77 0 -3 -15 -29 -33 -58 -82 -128 -146 -310 -164 -467 -12
-94 -7 -296 8 -337 4 -11 10 -37 13 -58 9 -58 61 -207 96 -277 146 -289 390
-525 720 -695 127 -66 205 -143 240 -237 19 -51 28 -66 40 -61 25 10 237 64
278 71 36 7 73 7 402 3 91 -1 186 0 213 4 26 3 68 8 95 11 132 16 349 71 492
127 447 173 804 506 950 886 51 134 74 260 74 417 0 203 -39 364 -132 544
-263 509 -819 846 -1497 907 -68 6 -263 12 -268 8z"/>
</g>
</svg>
